<?xml version="1.0" encoding="UTF-8"?>
<svg xmlns="http://www.w3.org/2000/svg" xmlns:xlink="http://www.w3.org/1999/xlink" width="1998pt" height="426pt" viewBox="0 0 1998 426" version="1.1">
<g id="surface1">
<path style=" stroke:none;fill-rule:nonzero;fill:rgb(19.9%,22.3%,55.1%);fill-opacity:1;" d="M 218.664062 71.066406 L 0.199219 71.066406 L 0.199219 121.976562 L 68.480469 121.976562 L 68.480469 354.53125 L 134.148438 354.53125 L 134.148438 121.976562 L 204.070312 121.976562 L 218.664062 71.066406 "/>
<path style=" stroke:none;fill-rule:nonzero;fill:rgb(19.9%,22.3%,55.1%);fill-opacity:1;" d="M 358.054688 355.425781 C 436.601562 355.425781 458.542969 314.296875 458.542969 269.804688 L 458.542969 71.066406 L 396.746094 71.066406 L 396.746094 255.632812 C 396.746094 286.933594 385.222656 302.9375 358.054688 302.9375 C 330.890625 302.9375 319.367188 286.933594 319.367188 255.632812 L 319.367188 71.066406 L 257.570312 71.066406 L 257.570312 269.804688 C 257.570312 314.296875 279.507812 355.425781 358.054688 355.425781 "/>
<path style=" stroke:none;fill-rule:nonzero;fill:rgb(19.9%,22.3%,55.1%);fill-opacity:1;" d="M 809.554688 259.449219 C 809.554688 200.539062 787.585938 161.320312 731.332031 161.320312 C 678.328125 161.320312 650.144531 202.207031 650.144531 259.449219 C 650.144531 294.617188 664.867188 355.449219 740.828125 355.449219 C 771.636719 355.449219 795.851562 339.175781 807.40625 329.78125 L 788.5625 300.699219 C 788.5625 300.699219 769.769531 319.296875 741.019531 319.296875 C 714.058594 319.296875 702.578125 299.757812 702.578125 272.738281 L 809.554688 272.738281 Z M 759.320312 237.605469 L 703.296875 237.605469 L 703.296875 236.878906 C 703.296875 224.800781 706.476562 196.777344 731.332031 196.777344 C 737.878906 196.777344 759.320312 196.476562 759.320312 233.550781 L 759.320312 237.605469 "/>
<path style=" stroke:none;fill-rule:nonzero;fill:rgb(82.3%,12.4%,38.2%);fill-opacity:1;" d="M 537.5625 425.394531 L 659.488281 0.199219 L 614.136719 0.199219 L 492.210938 425.394531 L 537.5625 425.394531 "/>
<path style=" stroke:none;fill-rule:nonzero;fill:rgb(19.9%,22.3%,55.1%);fill-opacity:1;" d="M 951.265625 71.0625 L 905.863281 71.0625 L 905.863281 77.964844 L 924.265625 77.964844 L 924.265625 139.664062 L 932.164062 139.664062 L 932.164062 77.964844 L 950.765625 77.964844 Z M 993.363281 116.0625 L 993.363281 114.964844 C 993.363281 103.0625 991.964844 98.363281 987.664062 93.960938 C 984.265625 90.460938 979.566406 88.5625 974.164062 88.5625 C 968.164062 88.5625 963.265625 90.761719 959.265625 95.460938 C 955.0625 100.464844 953.265625 105.863281 953.265625 114.261719 C 953.265625 130.761719 961.566406 140.761719 975.363281 140.761719 C 981.765625 140.761719 987.769531 138.5625 992.164062 134.5625 L 989.164062 129.5625 C 985.664062 132.765625 981.765625 134.261719 976.964844 134.261719 C 971.964844 134.261719 967.363281 132.464844 964.566406 128.164062 C 962.863281 125.5625 962.265625 121.964844 962.265625 117.261719 L 962.265625 116.0625 Z M 985.066406 110.164062 L 962.265625 110.164062 C 962.664062 99.863281 966.664062 94.664062 973.765625 94.664062 C 977.566406 94.664062 981.066406 96.363281 982.765625 99.0625 C 984.265625 101.464844 984.964844 104.761719 985.066406 110.164062 M 1043.269531 134.164062 L 1038.96875 129.164062 C 1036.070312 132.664062 1032.269531 134.5625 1028.269531 134.5625 C 1020.269531 134.5625 1015.96875 128.464844 1015.96875 117.261719 C 1015.96875 109.964844 1016.871094 104.464844 1018.769531 100.964844 C 1020.570312 97.5625 1024.269531 95.363281 1028.171875 95.363281 C 1031.96875 95.363281 1034.171875 96.464844 1037.671875 99.363281 L 1041.96875 93.960938 C 1038.371094 90.964844 1034.671875 88.5625 1028.371094 88.5625 C 1023.070312 88.5625 1018.769531 90.460938 1014.871094 94.363281 C 1010.570312 98.664062 1007.371094 104.664062 1007.371094 115.5625 C 1007.371094 122.964844 1008.871094 128.464844 1012.171875 133.265625 C 1015.671875 138.265625 1020.96875 140.761719 1028.070312 140.761719 C 1034.269531 140.761719 1038.671875 138.863281 1043.269531 134.164062 M 1094.46875 139.664062 L 1094.46875 103.964844 C 1094.46875 100.363281 1094.269531 98.761719 1093.671875 96.765625 C 1092.269531 92.164062 1086.871094 88.863281 1080.871094 88.863281 C 1074.46875 88.863281 1068.769531 92.5625 1064.269531 96.765625 C 1064.269531 96.765625 1064.570312 93.164062 1064.570312 89.964844 L 1064.570312 78.363281 C 1064.570312 70.761719 1063.269531 66.5625 1063.269531 66.5625 L 1055.46875 68.0625 C 1055.46875 68.0625 1056.769531 71.765625 1056.769531 78.265625 L 1056.769531 139.664062 L 1064.570312 139.664062 L 1064.570312 104.261719 C 1068.871094 98.964844 1074.269531 95.863281 1079.070312 95.863281 C 1081.570312 95.863281 1083.671875 96.664062 1084.871094 97.863281 C 1086.269531 99.261719 1086.769531 101.5625 1086.769531 105.265625 L 1086.769531 139.664062 Z M 1152.070312 139.664062 L 1152.070312 101.863281 C 1152.070312 99.863281 1151.671875 97.863281 1150.871094 96.0625 C 1148.871094 91.664062 1144.070312 88.761719 1138.671875 88.761719 C 1133.371094 88.761719 1128.171875 91.261719 1122.96875 96.464844 C 1122.96875 92.363281 1121.171875 88.664062 1121.171875 88.664062 L 1113.570312 90.761719 C 1113.570312 90.761719 1115.46875 94.164062 1115.46875 101.261719 L 1115.46875 139.664062 L 1123.070312 139.664062 L 1123.070312 102.5625 C 1126.671875 98.761719 1132.871094 95.5625 1136.871094 95.5625 C 1139.171875 95.5625 1141.261719 96.363281 1142.371094 97.664062 C 1143.761719 99.363281 1144.171875 100.664062 1144.171875 105.964844 L 1144.171875 139.664062 Z M 1181.171875 139.664062 L 1181.171875 88.761719 L 1173.070312 90.0625 L 1173.070312 139.664062 Z M 1183.371094 74.464844 C 1183.371094 71.0625 1180.671875 68.363281 1177.261719 68.363281 C 1173.871094 68.363281 1171.171875 71.164062 1171.171875 74.5625 C 1171.171875 77.863281 1173.871094 80.5625 1177.261719 80.5625 C 1180.671875 80.5625 1183.371094 77.863281 1183.371094 74.464844 M 1234.261719 124.863281 C 1234.261719 117.464844 1229.96875 112.863281 1220.96875 110.964844 L 1214.371094 109.5625 C 1209.070312 108.464844 1207.171875 106.164062 1207.171875 102.363281 C 1207.171875 97.464844 1210.871094 94.164062 1216.570312 94.164062 C 1220.96875 94.164062 1224.671875 95.664062 1229.070312 97.761719 L 1231.96875 91.960938 C 1227.761719 89.5625 1221.96875 87.964844 1216.761719 87.964844 C 1206.371094 87.964844 1199.070312 94.261719 1199.070312 103.261719 C 1199.070312 110.164062 1203.46875 115.261719 1211.671875 116.964844 L 1217.871094 118.265625 C 1223.570312 119.464844 1226.070312 121.964844 1226.070312 126.464844 C 1226.070312 131.765625 1222.070312 135.0625 1215.96875 135.0625 C 1210.46875 135.0625 1205.261719 133.464844 1200.171875 130.363281 L 1197.171875 136.164062 C 1202.261719 139.261719 1209.171875 141.164062 1215.46875 141.164062 C 1226.671875 141.164062 1234.261719 134.5625 1234.261719 124.863281 M 1283.671875 134.164062 L 1279.371094 129.164062 C 1276.46875 132.664062 1272.671875 134.5625 1268.671875 134.5625 C 1260.671875 134.5625 1256.371094 128.464844 1256.371094 117.261719 C 1256.371094 109.964844 1257.261719 104.464844 1259.171875 100.964844 C 1260.96875 97.5625 1264.671875 95.363281 1268.570312 95.363281 C 1272.371094 95.363281 1274.570312 96.464844 1278.070312 99.363281 L 1282.371094 93.960938 C 1278.761719 90.964844 1275.070312 88.5625 1268.761719 88.5625 C 1263.46875 88.5625 1259.171875 90.460938 1255.261719 94.363281 C 1250.96875 98.664062 1247.761719 104.664062 1247.761719 115.5625 C 1247.761719 122.964844 1249.261719 128.464844 1252.570312 133.265625 C 1256.070312 138.265625 1261.371094 140.761719 1268.46875 140.761719 C 1274.671875 140.761719 1279.070312 138.863281 1283.671875 134.164062 M 1334.871094 139.664062 L 1334.871094 103.964844 C 1334.871094 100.363281 1334.671875 98.761719 1334.070312 96.765625 C 1332.671875 92.164062 1327.261719 88.863281 1321.261719 88.863281 C 1314.871094 88.863281 1309.171875 92.5625 1304.671875 96.765625 C 1304.671875 96.765625 1304.96875 93.164062 1304.96875 89.964844 L 1304.96875 78.363281 C 1304.96875 70.761719 1303.671875 66.5625 1303.671875 66.5625 L 1295.871094 68.0625 C 1295.871094 68.0625 1297.171875 71.765625 1297.171875 78.265625 L 1297.171875 139.664062 L 1304.96875 139.664062 L 1304.96875 104.261719 C 1309.261719 98.964844 1314.671875 95.863281 1319.46875 95.863281 C 1321.96875 95.863281 1324.070312 96.664062 1325.261719 97.863281 C 1326.671875 99.261719 1327.171875 101.5625 1327.171875 105.265625 L 1327.171875 139.664062 Z M 1392.949219 116.0625 L 1392.949219 114.964844 C 1392.949219 103.0625 1391.558594 98.363281 1387.261719 93.960938 C 1383.859375 90.460938 1379.160156 88.5625 1373.761719 88.5625 C 1367.761719 88.5625 1362.851562 90.761719 1358.859375 95.460938 C 1354.660156 100.464844 1352.859375 105.863281 1352.859375 114.261719 C 1352.859375 130.761719 1361.160156 140.761719 1374.960938 140.761719 C 1381.351562 140.761719 1387.359375 138.5625 1391.75 134.5625 L 1388.761719 129.5625 C 1385.261719 132.765625 1381.351562 134.261719 1376.558594 134.261719 C 1371.550781 134.261719 1366.949219 132.464844 1364.160156 128.164062 C 1362.460938 125.5625 1361.859375 121.964844 1361.859375 117.261719 L 1361.859375 116.0625 Z M 1384.660156 110.164062 L 1361.859375 110.164062 C 1362.261719 99.863281 1366.261719 94.664062 1373.359375 94.664062 C 1377.160156 94.664062 1380.660156 96.363281 1382.359375 99.0625 C 1383.859375 101.464844 1384.550781 104.761719 1384.660156 110.164062 M 1479.949219 119.863281 L 1479.949219 71.0625 L 1471.851562 71.0625 L 1471.851562 118.863281 C 1471.851562 123.464844 1471.550781 126.464844 1469.25 129.5625 C 1467.160156 132.363281 1462.851562 133.863281 1457.160156 133.863281 C 1448.769531 133.863281 1445.058594 130.164062 1443.761719 127.164062 C 1442.859375 125.0625 1442.558594 120.664062 1442.558594 117.261719 L 1442.558594 71.0625 L 1434.460938 71.0625 L 1434.460938 120.261719 C 1434.460938 123.265625 1434.660156 127.664062 1436.460938 130.964844 C 1440.160156 137.765625 1446.171875 140.863281 1456.761719 140.863281 C 1465.058594 140.863281 1470.558594 139.164062 1474.75 135.5625 C 1478.859375 132.0625 1479.949219 128.164062 1479.949219 119.863281 M 1537.058594 139.664062 L 1537.058594 101.863281 C 1537.058594 99.863281 1536.660156 97.863281 1535.859375 96.0625 C 1533.859375 91.664062 1529.050781 88.761719 1523.660156 88.761719 C 1518.351562 88.761719 1513.148438 91.261719 1507.949219 96.464844 C 1507.949219 92.363281 1506.160156 88.664062 1506.160156 88.664062 L 1498.558594 90.761719 C 1498.558594 90.761719 1500.449219 94.164062 1500.449219 101.261719 L 1500.449219 139.664062 L 1508.058594 139.664062 L 1508.058594 102.5625 C 1511.660156 98.761719 1517.859375 95.5625 1521.851562 95.5625 C 1524.148438 95.5625 1526.261719 96.363281 1527.351562 97.664062 C 1528.75 99.363281 1529.160156 100.664062 1529.160156 105.964844 L 1529.160156 139.664062 Z M 1566.160156 139.664062 L 1566.160156 88.761719 L 1558.058594 90.0625 L 1558.058594 139.664062 Z M 1568.351562 74.464844 C 1568.351562 71.0625 1565.660156 68.363281 1562.261719 68.363281 C 1558.851562 68.363281 1556.160156 71.164062 1556.160156 74.5625 C 1556.160156 77.863281 1558.851562 80.5625 1562.261719 80.5625 C 1565.660156 80.5625 1568.351562 77.863281 1568.351562 74.464844 M 1623.460938 89.863281 L 1615.148438 89.863281 L 1603.761719 122.964844 C 1602.148438 127.464844 1601.359375 131.363281 1601.359375 131.363281 L 1601.160156 131.363281 C 1601.160156 131.363281 1600.148438 126.964844 1598.761719 122.863281 L 1587.148438 88.5625 L 1579.160156 90.265625 L 1597.058594 140.164062 L 1604.75 140.164062 Z M 1673.058594 116.0625 L 1673.058594 114.964844 C 1673.058594 103.0625 1671.660156 98.363281 1667.359375 93.960938 C 1663.960938 90.460938 1659.261719 88.5625 1653.859375 88.5625 C 1647.851562 88.5625 1642.949219 90.761719 1638.960938 95.460938 C 1634.761719 100.464844 1632.960938 105.863281 1632.960938 114.261719 C 1632.960938 130.761719 1641.261719 140.761719 1655.050781 140.761719 C 1661.449219 140.761719 1667.449219 138.5625 1671.851562 134.5625 L 1668.859375 129.5625 C 1665.359375 132.765625 1661.449219 134.261719 1656.660156 134.261719 C 1651.660156 134.261719 1647.058594 132.464844 1644.261719 128.164062 C 1642.558594 125.5625 1641.960938 121.964844 1641.960938 117.261719 L 1641.960938 116.0625 Z M 1664.761719 110.164062 L 1641.960938 110.164062 C 1642.351562 99.863281 1646.359375 94.664062 1653.460938 94.664062 C 1657.261719 94.664062 1660.761719 96.363281 1662.460938 99.0625 C 1663.960938 101.464844 1664.660156 104.761719 1664.761719 110.164062 M 1714.460938 88.863281 C 1714.460938 88.863281 1713.058594 88.363281 1711.761719 88.363281 C 1706.660156 88.363281 1701.359375 91.5625 1697.761719 96.664062 C 1698.058594 92.464844 1696.160156 88.5625 1696.160156 88.5625 L 1688.359375 90.664062 C 1688.359375 90.664062 1690.050781 93.960938 1690.050781 101.261719 L 1690.050781 139.664062 L 1697.851562 139.664062 L 1697.851562 108.464844 C 1697.851562 104.363281 1698.460938 102.863281 1700.75 100.5625 C 1703.050781 98.265625 1706.058594 96.960938 1709.058594 96.960938 C 1709.859375 96.960938 1710.761719 97.164062 1711.261719 97.363281 Z M 1757.050781 124.863281 C 1757.050781 117.464844 1752.75 112.863281 1743.75 110.964844 L 1737.148438 109.5625 C 1731.859375 108.464844 1729.960938 106.164062 1729.960938 102.363281 C 1729.960938 97.464844 1733.648438 94.164062 1739.359375 94.164062 C 1743.75 94.164062 1747.460938 95.664062 1751.851562 97.761719 L 1754.75 91.960938 C 1750.558594 89.5625 1744.761719 87.964844 1739.558594 87.964844 C 1729.160156 87.964844 1721.851562 94.261719 1721.851562 103.261719 C 1721.851562 110.164062 1726.261719 115.261719 1734.460938 116.964844 L 1740.660156 118.265625 C 1746.351562 119.464844 1748.859375 121.964844 1748.859375 126.464844 C 1748.859375 131.765625 1744.859375 135.0625 1738.761719 135.0625 C 1733.261719 135.0625 1728.058594 133.464844 1722.949219 130.363281 L 1719.960938 136.164062 C 1725.058594 139.261719 1731.949219 141.164062 1738.261719 141.164062 C 1749.460938 141.164062 1757.050781 134.5625 1757.050781 124.863281 M 1781.160156 139.664062 L 1781.160156 88.761719 L 1773.058594 90.0625 L 1773.058594 139.664062 Z M 1783.351562 74.464844 C 1783.351562 71.0625 1780.660156 68.363281 1777.261719 68.363281 C 1773.851562 68.363281 1771.160156 71.164062 1771.160156 74.5625 C 1771.160156 77.863281 1773.851562 80.5625 1777.261719 80.5625 C 1780.660156 80.5625 1783.351562 77.863281 1783.351562 74.464844 M 1822.648438 89.863281 L 1810.160156 89.863281 C 1810.160156 83.265625 1811.148438 75.464844 1811.148438 75.464844 L 1802.960938 77.261719 C 1802.960938 77.261719 1802.148438 85.0625 1802.148438 89.863281 L 1795.660156 89.863281 L 1795.660156 95.761719 L 1802.148438 95.761719 L 1802.148438 129.964844 C 1802.148438 134.964844 1803.460938 138.164062 1806.960938 139.863281 C 1808.859375 140.761719 1810.851562 141.265625 1813.449219 141.265625 C 1816.960938 141.265625 1819.75 140.5625 1822.261719 139.261719 L 1821.160156 134.261719 C 1819.75 134.964844 1818.460938 135.261719 1816.261719 135.261719 C 1811.359375 135.261719 1809.859375 133.363281 1809.859375 127.863281 L 1809.859375 95.761719 L 1820.261719 95.761719 Z M 1872.761719 116.0625 L 1872.761719 114.964844 C 1872.761719 103.0625 1871.359375 98.363281 1867.058594 93.960938 C 1863.660156 90.460938 1858.960938 88.5625 1853.558594 88.5625 C 1847.550781 88.5625 1842.648438 90.761719 1838.660156 95.460938 C 1834.460938 100.464844 1832.660156 105.863281 1832.660156 114.261719 C 1832.660156 130.761719 1840.960938 140.761719 1854.75 140.761719 C 1861.148438 140.761719 1867.148438 138.5625 1871.550781 134.5625 L 1868.558594 129.5625 C 1865.058594 132.765625 1861.148438 134.261719 1856.359375 134.261719 C 1851.359375 134.261719 1846.761719 132.464844 1843.960938 128.164062 C 1842.261719 125.5625 1841.660156 121.964844 1841.660156 117.261719 L 1841.660156 116.0625 Z M 1864.460938 110.164062 L 1841.660156 110.164062 C 1842.050781 99.863281 1846.050781 94.664062 1853.160156 94.664062 C 1856.960938 94.664062 1860.460938 96.363281 1862.160156 99.0625 C 1863.660156 101.464844 1864.359375 104.761719 1864.460938 110.164062 M 1897.851562 139.664062 L 1897.851562 88.761719 L 1889.75 90.0625 L 1889.75 139.664062 Z M 1900.058594 74.464844 C 1900.058594 71.0625 1897.359375 68.363281 1893.960938 68.363281 C 1890.558594 68.363281 1887.859375 71.164062 1887.859375 74.5625 C 1887.859375 77.863281 1890.558594 80.5625 1893.960938 80.5625 C 1897.359375 80.5625 1900.058594 77.863281 1900.058594 74.464844 M 1939.359375 89.863281 L 1926.859375 89.863281 C 1926.859375 83.265625 1927.851562 75.464844 1927.851562 75.464844 L 1919.660156 77.261719 C 1919.660156 77.261719 1918.859375 85.0625 1918.859375 89.863281 L 1912.359375 89.863281 L 1912.359375 95.761719 L 1918.859375 95.761719 L 1918.859375 129.964844 C 1918.859375 134.964844 1920.160156 138.164062 1923.660156 139.863281 C 1925.550781 140.761719 1927.550781 141.265625 1930.148438 141.265625 C 1933.648438 141.265625 1936.460938 140.5625 1938.960938 139.261719 L 1937.859375 134.261719 C 1936.460938 134.964844 1935.160156 135.261719 1932.960938 135.261719 C 1928.058594 135.261719 1926.558594 133.363281 1926.558594 127.863281 L 1926.558594 95.761719 L 1936.960938 95.761719 L 1939.359375 89.863281 "/>
<path style=" stroke:none;fill-rule:nonzero;fill:rgb(19.9%,22.3%,55.1%);fill-opacity:1;" d="M 962.09375 247.101562 L 962.09375 235.101562 L 935.796875 235.101562 L 935.796875 216.503906 L 955.496094 216.503906 L 955.496094 205.105469 L 935.59375 205.105469 L 935.59375 189.003906 L 959.394531 189.003906 L 961.195312 177.601562 L 921.59375 177.601562 L 921.59375 247.101562 Z M 987.492188 247.101562 L 987.492188 194.703125 L 974.09375 196.804688 L 974.09375 247.101562 Z M 989.09375 181.804688 C 989.09375 177.203125 985.492188 173.503906 980.992188 173.503906 C 976.394531 173.503906 972.59375 177.203125 972.59375 181.804688 C 972.59375 186.402344 976.292969 190.101562 980.792969 190.101562 C 985.394531 190.101562 989.09375 186.402344 989.09375 181.804688 M 1044.898438 247.101562 L 1044.898438 209.703125 C 1044.898438 206.503906 1044.589844 204.304688 1043.898438 202.402344 C 1042.289062 198.003906 1037.289062 195.003906 1031.589844 195.003906 C 1028.589844 195.003906 1025.101562 195.804688 1022.398438 197.203125 C 1020.199219 198.402344 1018.5 199.601562 1016.5 201.003906 C 1016.5 198.902344 1015.800781 196.703125 1014.601562 194.601562 L 1002.699219 198.003906 C 1003.898438 201.402344 1004.5 205.601562 1004.5 210.003906 L 1004.5 247.101562 L 1017.898438 247.101562 L 1017.898438 210.902344 C 1021 208.105469 1024.5 206.304688 1027.199219 206.304688 C 1030.699219 206.304688 1031.699219 208.003906 1031.699219 213.804688 L 1031.699219 247.101562 Z M 1104.699219 247.101562 C 1103.789062 245.105469 1102.789062 241.003906 1102.789062 228.402344 L 1102.789062 175.203125 L 1089.488281 173.101562 L 1089.488281 190.703125 C 1089.488281 193.703125 1089.699219 197.203125 1089.898438 198.304688 C 1087.398438 196.304688 1084.488281 195.402344 1080.789062 195.402344 C 1067.789062 195.402344 1058.890625 206.402344 1058.890625 222.402344 C 1058.890625 238.304688 1067.089844 248.402344 1080.089844 248.402344 C 1084.699219 248.402344 1088.589844 247 1091.898438 244.101562 C 1092.089844 245.5 1092.289062 246.300781 1092.699219 247.101562 Z M 1089.699219 233.804688 C 1088.398438 235.402344 1085.589844 237.101562 1083.089844 237.101562 C 1076.089844 237.101562 1073.789062 233.503906 1073.789062 222.503906 C 1073.789062 211.101562 1076.390625 206.101562 1082.398438 206.101562 C 1084.789062 206.101562 1087.199219 207.203125 1089.699219 209.402344 Z M 1162.289062 247.101562 L 1162.289062 211.304688 C 1162.289062 206.402344 1161.988281 204.703125 1160.988281 201.804688 C 1159.390625 197.304688 1154.191406 194.503906 1147.691406 194.503906 C 1142.488281 194.503906 1136.691406 196.703125 1133.191406 200.003906 C 1133.191406 199.402344 1133.390625 197.304688 1133.390625 195.703125 L 1133.390625 185.503906 C 1133.390625 180.605469 1133.089844 175.804688 1132.488281 173.003906 L 1118.789062 176.203125 C 1119.390625 178.304688 1119.789062 183.101562 1119.789062 187.902344 L 1119.789062 247.101562 L 1133.390625 247.101562 L 1133.390625 210.402344 C 1136.390625 207.703125 1140.691406 205.703125 1143.988281 205.703125 C 1147.789062 205.703125 1149.191406 207.601562 1149.191406 212.703125 L 1149.191406 247.101562 Z M 1222.089844 221.304688 C 1222.089844 213.003906 1220.289062 207.402344 1216.191406 202.601562 C 1211.789062 197.402344 1206.089844 194.902344 1198.789062 194.902344 C 1184.988281 194.902344 1175.789062 205.601562 1175.789062 221.703125 C 1175.789062 237.804688 1184.890625 248.199219 1198.789062 248.199219 C 1206.691406 248.199219 1211.789062 245.5 1215.691406 241.101562 C 1220.089844 236.101562 1222.089844 230.101562 1222.089844 221.304688 M 1207.488281 221.203125 C 1207.488281 233.304688 1204.988281 238.503906 1199.191406 238.503906 C 1196.589844 238.503906 1193.589844 237.101562 1192.390625 234.304688 C 1191.289062 231.703125 1190.691406 227.304688 1190.691406 221.402344 C 1190.691406 216.304688 1191.191406 212.703125 1192.089844 210.003906 C 1193.191406 206.804688 1195.789062 204.804688 1198.988281 204.804688 C 1201.390625 204.804688 1203.488281 205.804688 1204.789062 207.503906 C 1206.589844 209.804688 1207.488281 214.304688 1207.488281 221.203125 M 1274.988281 195.902344 L 1260.988281 195.902344 L 1254.089844 217.402344 C 1252.488281 222.503906 1251.390625 227.402344 1250.988281 230.402344 C 1250.289062 227.105469 1248.789062 221.503906 1247.691406 218.101562 L 1240.289062 195.003906 L 1226.589844 196.703125 L 1245.191406 247.101562 L 1256.289062 247.101562 Z M 1324.589844 225.703125 L 1324.589844 222.601562 C 1324.589844 211.902344 1322.488281 205.003906 1317.789062 200.203125 C 1314.488281 196.804688 1308.898438 194.804688 1302.988281 194.804688 C 1296.199219 194.804688 1291.089844 197.003906 1286.898438 201.703125 C 1282.398438 206.703125 1280.488281 212.804688 1280.488281 222.003906 C 1280.488281 238.101562 1289.988281 248.5 1304.699219 248.5 C 1311.898438 248.5 1318.089844 246.199219 1323.988281 241.402344 L 1318.789062 233.402344 C 1314.699219 236.804688 1310.398438 238.503906 1305.789062 238.503906 C 1298.898438 238.503906 1294.988281 234.003906 1294.988281 226.101562 L 1294.988281 225.703125 Z M 1310.699219 215.902344 L 1295.199219 215.902344 L 1295.199219 215.703125 C 1295.199219 208.605469 1298.089844 204.601562 1303.199219 204.601562 C 1305.898438 204.601562 1307.789062 205.601562 1309.089844 207.601562 C 1310.289062 209.503906 1310.699219 211.503906 1310.699219 215.304688 Z M 1377.488281 247.101562 L 1377.488281 209.703125 C 1377.488281 206.503906 1377.191406 204.304688 1376.488281 202.402344 C 1374.890625 198.003906 1369.890625 195.003906 1364.191406 195.003906 C 1361.191406 195.003906 1357.691406 195.804688 1354.988281 197.203125 C 1352.789062 198.402344 1351.089844 199.601562 1349.089844 201.003906 C 1349.089844 198.902344 1348.390625 196.703125 1347.191406 194.601562 L 1335.289062 198.003906 C 1336.488281 201.402344 1337.089844 205.601562 1337.089844 210.003906 L 1337.089844 247.101562 L 1350.488281 247.101562 L 1350.488281 210.902344 C 1353.589844 208.105469 1357.089844 206.304688 1359.789062 206.304688 C 1363.289062 206.304688 1364.28125 208.003906 1364.28125 213.804688 L 1364.28125 247.101562 L 1377.488281 247.101562 "/>
<path style=" stroke:none;fill-rule:nonzero;fill:rgb(19.9%,22.3%,55.1%);fill-opacity:1;" d="M 966.007812 334.742188 L 966.007812 285.941406 L 957.90625 285.941406 L 957.90625 333.742188 C 957.90625 338.34375 957.605469 341.34375 955.304688 344.441406 C 953.207031 347.242188 948.90625 348.742188 943.207031 348.742188 C 934.804688 348.742188 931.105469 345.042969 929.804688 342.042969 C 928.90625 339.941406 928.605469 335.542969 928.605469 332.144531 L 928.605469 285.941406 L 920.507812 285.941406 L 920.507812 335.144531 C 920.507812 338.144531 920.707031 342.542969 922.507812 345.84375 C 926.203125 352.644531 932.207031 355.742188 942.804688 355.742188 C 951.105469 355.742188 956.605469 354.042969 960.804688 350.441406 C 964.90625 346.941406 966.007812 343.042969 966.007812 334.742188 M 1023.109375 354.542969 L 1023.109375 316.742188 C 1023.109375 314.742188 1022.710938 312.742188 1021.910156 310.941406 C 1019.910156 306.542969 1015.109375 303.644531 1009.710938 303.644531 C 1004.410156 303.644531 999.207031 306.144531 994.007812 311.34375 C 994.007812 307.242188 992.207031 303.542969 992.207031 303.542969 L 984.605469 305.644531 C 984.605469 305.644531 986.507812 309.042969 986.507812 316.144531 L 986.507812 354.542969 L 994.105469 354.542969 L 994.105469 317.441406 C 997.707031 313.644531 1003.910156 310.441406 1007.910156 310.441406 C 1010.210938 310.441406 1012.308594 311.242188 1013.410156 312.542969 C 1014.808594 314.242188 1015.210938 315.542969 1015.210938 320.84375 L 1015.210938 354.542969 Z M 1052.199219 354.542969 L 1052.199219 303.644531 L 1044.109375 304.941406 L 1044.109375 354.542969 Z M 1054.410156 289.34375 C 1054.410156 285.941406 1051.699219 283.242188 1048.300781 283.242188 C 1044.910156 283.242188 1042.199219 286.039062 1042.199219 289.441406 C 1042.199219 292.742188 1044.910156 295.441406 1048.300781 295.441406 C 1051.699219 295.441406 1054.410156 292.742188 1054.410156 289.34375 M 1109.5 304.742188 L 1101.199219 304.742188 L 1089.800781 337.84375 C 1088.199219 342.34375 1087.398438 346.242188 1087.398438 346.242188 L 1087.199219 346.242188 C 1087.199219 346.242188 1086.199219 341.84375 1084.800781 337.742188 L 1073.199219 303.441406 L 1065.199219 305.144531 L 1083.101562 355.042969 L 1090.800781 355.042969 Z M 1159.109375 330.941406 L 1159.109375 329.84375 C 1159.109375 317.941406 1157.699219 313.242188 1153.410156 308.84375 C 1150 305.34375 1145.300781 303.441406 1139.910156 303.441406 C 1133.910156 303.441406 1129 305.644531 1125 310.34375 C 1120.800781 315.34375 1119 320.742188 1119 329.144531 C 1119 345.644531 1127.300781 355.644531 1141.109375 355.644531 C 1147.5 355.644531 1153.5 353.441406 1157.910156 349.441406 L 1154.910156 344.441406 C 1151.410156 347.644531 1147.5 349.144531 1142.699219 349.144531 C 1137.699219 349.144531 1133.109375 347.34375 1130.300781 343.042969 C 1128.609375 340.441406 1128 336.84375 1128 332.144531 L 1128 330.941406 Z M 1150.800781 325.042969 L 1128 325.042969 C 1128.410156 314.742188 1132.410156 309.542969 1139.5 309.542969 C 1143.300781 309.542969 1146.800781 311.242188 1148.5 313.941406 C 1150 316.34375 1150.699219 319.644531 1150.800781 325.042969 M 1200.5 303.742188 C 1200.5 303.742188 1199.101562 303.242188 1197.800781 303.242188 C 1192.699219 303.242188 1187.398438 306.441406 1183.800781 311.542969 C 1184.101562 307.34375 1182.199219 303.441406 1182.199219 303.441406 L 1174.398438 305.542969 C 1174.398438 305.542969 1176.101562 308.84375 1176.101562 316.144531 L 1176.101562 354.542969 L 1183.898438 354.542969 L 1183.898438 323.34375 C 1183.898438 319.242188 1184.5 317.742188 1186.800781 315.441406 C 1189.101562 313.144531 1192.101562 311.84375 1195.101562 311.84375 C 1195.898438 311.84375 1196.800781 312.042969 1197.300781 312.242188 Z M 1243.101562 339.742188 C 1243.101562 332.34375 1238.800781 327.742188 1229.800781 325.84375 L 1223.199219 324.441406 C 1217.898438 323.34375 1216 321.042969 1216 317.242188 C 1216 312.34375 1219.699219 309.042969 1225.398438 309.042969 C 1229.800781 309.042969 1233.5 310.542969 1237.898438 312.644531 L 1240.800781 306.84375 C 1236.601562 304.441406 1230.800781 302.84375 1225.601562 302.84375 C 1215.199219 302.84375 1207.898438 309.144531 1207.898438 318.144531 C 1207.898438 325.042969 1212.300781 330.144531 1220.5 331.84375 L 1226.699219 333.144531 C 1232.398438 334.34375 1234.898438 336.84375 1234.898438 341.34375 C 1234.898438 346.644531 1230.898438 349.941406 1224.800781 349.941406 C 1219.300781 349.941406 1214.101562 348.34375 1209 345.242188 L 1206 351.042969 C 1211.101562 354.144531 1218 356.042969 1224.300781 356.042969 C 1235.5 356.042969 1243.101562 349.441406 1243.101562 339.742188 M 1267.199219 354.542969 L 1267.199219 303.644531 L 1259.101562 304.941406 L 1259.101562 354.542969 Z M 1269.398438 289.34375 C 1269.398438 285.941406 1266.699219 283.242188 1263.300781 283.242188 C 1259.898438 283.242188 1257.199219 286.039062 1257.199219 289.441406 C 1257.199219 292.742188 1259.898438 295.441406 1263.300781 295.441406 C 1266.699219 295.441406 1269.398438 292.742188 1269.398438 289.34375 M 1308.699219 304.742188 L 1296.199219 304.742188 C 1296.199219 298.144531 1297.199219 290.34375 1297.199219 290.34375 L 1289 292.144531 C 1289 292.144531 1288.199219 299.941406 1288.199219 304.742188 L 1281.699219 304.742188 L 1281.699219 310.644531 L 1288.199219 310.644531 L 1288.199219 344.84375 C 1288.199219 349.84375 1289.5 353.042969 1293 354.742188 C 1294.898438 355.644531 1296.898438 356.144531 1299.5 356.144531 C 1303 356.144531 1305.800781 355.441406 1308.300781 354.144531 L 1307.199219 349.144531 C 1305.800781 349.84375 1304.5 350.144531 1302.300781 350.144531 C 1297.398438 350.144531 1295.898438 348.242188 1295.898438 342.742188 L 1295.898438 310.644531 L 1306.300781 310.644531 Z M 1357.101562 304.742188 L 1348.199219 304.742188 L 1338.398438 337.441406 C 1337.199219 341.542969 1335.300781 347.941406 1335.300781 347.941406 L 1335.101562 347.941406 C 1335.101562 347.941406 1333.601562 340.242188 1332.101562 335.542969 L 1321.898438 303.242188 L 1314.199219 305.84375 L 1324.898438 337.042969 C 1326.601562 342.042969 1329.300781 351.742188 1329.898438 354.941406 L 1333.101562 354.441406 C 1330.398438 364.542969 1328 367.742188 1321.601562 369.742188 L 1323.898438 375.042969 C 1332.601562 372.941406 1336.699219 366.34375 1340 356.34375 Z M 1433.511719 330.441406 C 1433.511719 322.34375 1431.988281 316.441406 1428.898438 311.941406 C 1425.5 307.042969 1420.101562 303.242188 1411.789062 303.242188 C 1398.699219 303.242188 1390.601562 313.144531 1390.601562 329.34375 C 1390.601562 345.742188 1398.398438 355.84375 1412.089844 355.84375 C 1424.601562 355.84375 1433.511719 347.042969 1433.511719 330.441406 M 1424.601562 331.042969 C 1424.601562 335.941406 1424.191406 338.742188 1423.109375 341.84375 C 1421.398438 346.644531 1417.5 349.34375 1412.300781 349.34375 C 1407.988281 349.34375 1403.988281 347.34375 1402.199219 344.34375 C 1400.300781 341.242188 1399.089844 335.042969 1399.089844 328.042969 C 1399.089844 322.144531 1399.898438 318.144531 1401.5 315.042969 C 1403.199219 311.742188 1407.300781 309.644531 1411.699219 309.644531 C 1415.800781 309.644531 1420.191406 311.644531 1422.300781 316.042969 C 1423.890625 319.34375 1424.601562 324.042969 1424.601562 331.042969 M 1476.300781 285.042969 C 1473.398438 283.144531 1469.589844 282.144531 1465.300781 282.144531 C 1461.601562 282.144531 1458.890625 282.941406 1456.5 284.742188 C 1454.398438 286.34375 1451 289.542969 1451 296.941406 L 1451 304.742188 L 1446.191406 304.742188 L 1446.191406 310.644531 L 1451 310.644531 L 1451 354.542969 L 1459.191406 354.542969 L 1459.191406 310.644531 L 1470.601562 310.644531 L 1473 304.742188 L 1459.191406 304.742188 L 1459.191406 297.042969 C 1459.191406 291.34375 1461.601562 288.242188 1466 288.242188 C 1468.691406 288.242188 1471.5 289.441406 1473.398438 290.542969 Z M 1543.699219 285.941406 L 1498.300781 285.941406 L 1498.300781 292.84375 L 1516.691406 292.84375 L 1516.691406 354.542969 L 1524.601562 354.542969 L 1524.601562 292.84375 L 1543.199219 292.84375 Z M 1585.789062 330.941406 L 1585.789062 329.84375 C 1585.789062 317.941406 1584.398438 313.242188 1580.101562 308.84375 C 1576.699219 305.34375 1572 303.441406 1566.601562 303.441406 C 1560.589844 303.441406 1555.691406 305.644531 1551.691406 310.34375 C 1547.5 315.34375 1545.699219 320.742188 1545.699219 329.144531 C 1545.699219 345.644531 1553.988281 355.644531 1567.800781 355.644531 C 1574.191406 355.644531 1580.199219 353.441406 1584.589844 349.441406 L 1581.601562 344.441406 C 1578.101562 347.644531 1574.191406 349.144531 1569.398438 349.144531 C 1564.390625 349.144531 1559.800781 347.34375 1557 343.042969 C 1555.300781 340.441406 1554.699219 336.84375 1554.699219 332.144531 L 1554.699219 330.941406 Z M 1577.5 325.042969 L 1554.699219 325.042969 C 1555.089844 314.742188 1559.101562 309.542969 1566.199219 309.542969 C 1570 309.542969 1573.5 311.242188 1575.199219 313.941406 C 1576.699219 316.34375 1577.390625 319.644531 1577.5 325.042969 M 1635.699219 349.042969 L 1631.390625 344.042969 C 1628.5 347.542969 1624.699219 349.441406 1620.691406 349.441406 C 1612.699219 349.441406 1608.398438 343.34375 1608.398438 332.144531 C 1608.398438 324.84375 1609.300781 319.34375 1611.191406 315.84375 C 1613 312.441406 1616.691406 310.242188 1620.601562 310.242188 C 1624.398438 310.242188 1626.601562 311.34375 1630.101562 314.242188 L 1634.398438 308.84375 C 1630.800781 305.84375 1627.089844 303.441406 1620.800781 303.441406 C 1615.488281 303.441406 1611.191406 305.34375 1607.300781 309.242188 C 1603 313.542969 1599.800781 319.542969 1599.800781 330.441406 C 1599.800781 337.84375 1601.300781 343.34375 1604.601562 348.144531 C 1608.101562 353.144531 1613.398438 355.644531 1620.5 355.644531 C 1626.699219 355.644531 1631.101562 353.742188 1635.699219 349.042969 M 1686.890625 354.542969 L 1686.890625 318.84375 C 1686.890625 315.242188 1686.699219 313.644531 1686.101562 311.644531 C 1684.699219 307.042969 1679.300781 303.742188 1673.289062 303.742188 C 1666.898438 303.742188 1661.191406 307.441406 1656.699219 311.644531 C 1656.699219 311.644531 1657 308.042969 1657 304.84375 L 1657 293.242188 C 1657 285.644531 1655.691406 281.441406 1655.691406 281.441406 L 1647.890625 282.941406 C 1647.890625 282.941406 1649.199219 286.644531 1649.199219 293.144531 L 1649.199219 354.542969 L 1657 354.542969 L 1657 319.144531 C 1661.300781 313.84375 1666.691406 310.742188 1671.5 310.742188 C 1674 310.742188 1676.101562 311.542969 1677.300781 312.742188 C 1678.699219 314.144531 1679.199219 316.441406 1679.199219 320.144531 L 1679.199219 354.542969 Z M 1744.5 354.542969 L 1744.5 316.742188 C 1744.5 314.742188 1744.089844 312.742188 1743.289062 310.941406 C 1741.300781 306.542969 1736.5 303.644531 1731.089844 303.644531 C 1725.800781 303.644531 1720.601562 306.144531 1715.398438 311.34375 C 1715.398438 307.242188 1713.601562 303.542969 1713.601562 303.542969 L 1705.988281 305.644531 C 1705.988281 305.644531 1707.898438 309.042969 1707.898438 316.144531 L 1707.898438 354.542969 L 1715.488281 354.542969 L 1715.488281 317.441406 C 1719.101562 313.644531 1725.300781 310.441406 1729.300781 310.441406 C 1731.601562 310.441406 1733.691406 311.242188 1734.800781 312.542969 C 1736.199219 314.242188 1736.589844 315.542969 1736.589844 320.84375 L 1736.589844 354.542969 Z M 1804.898438 330.441406 C 1804.898438 322.34375 1803.390625 316.441406 1800.300781 311.941406 C 1796.898438 307.042969 1791.488281 303.242188 1783.199219 303.242188 C 1770.101562 303.242188 1762 313.144531 1762 329.34375 C 1762 345.742188 1769.800781 355.84375 1783.5 355.84375 C 1796 355.84375 1804.898438 347.042969 1804.898438 330.441406 M 1796 331.042969 C 1796 335.941406 1795.589844 338.742188 1794.5 341.84375 C 1792.800781 346.644531 1788.890625 349.34375 1783.691406 349.34375 C 1779.390625 349.34375 1775.398438 347.34375 1773.589844 344.34375 C 1771.699219 341.242188 1770.5 335.042969 1770.5 328.042969 C 1770.5 322.144531 1771.289062 318.144531 1772.898438 315.042969 C 1774.601562 311.742188 1778.699219 309.644531 1783.101562 309.644531 C 1787.191406 309.644531 1791.601562 311.644531 1793.699219 316.042969 C 1795.289062 319.34375 1796 324.042969 1796 331.042969 M 1835.191406 354.441406 L 1833.601562 349.34375 C 1833.601562 349.34375 1832.898438 349.542969 1832.589844 349.542969 C 1830.398438 349.542969 1829.800781 348.441406 1829.800781 344.542969 L 1829.800781 293.644531 C 1829.800781 286.039062 1828.488281 281.84375 1828.488281 281.84375 L 1820.691406 283.34375 C 1820.691406 283.34375 1821.890625 287.042969 1821.890625 293.542969 L 1821.890625 346.34375 C 1821.890625 349.941406 1822.699219 352.042969 1824.300781 353.441406 C 1825.800781 354.84375 1827.800781 355.542969 1830.199219 355.542969 C 1832.289062 355.542969 1833.199219 355.34375 1835.191406 354.441406 M 1890.199219 330.441406 C 1890.199219 322.34375 1888.699219 316.441406 1885.601562 311.941406 C 1882.199219 307.042969 1876.789062 303.242188 1868.5 303.242188 C 1855.390625 303.242188 1847.289062 313.144531 1847.289062 329.34375 C 1847.289062 345.742188 1855.089844 355.84375 1868.800781 355.84375 C 1881.300781 355.84375 1890.199219 347.042969 1890.199219 330.441406 M 1881.300781 331.042969 C 1881.300781 335.941406 1880.898438 338.742188 1879.800781 341.84375 C 1878.101562 346.644531 1874.191406 349.34375 1868.988281 349.34375 C 1864.699219 349.34375 1860.699219 347.34375 1858.890625 344.34375 C 1857 341.242188 1855.800781 335.042969 1855.800781 328.042969 C 1855.800781 322.144531 1856.601562 318.144531 1858.199219 315.042969 C 1859.898438 311.742188 1864 309.644531 1868.390625 309.644531 C 1872.5 309.644531 1876.898438 311.644531 1879 316.042969 C 1880.601562 319.34375 1881.300781 324.042969 1881.300781 331.042969 M 1949.589844 309.144531 L 1944.800781 304.34375 C 1942.390625 305.941406 1940.5 306.542969 1937.898438 306.542969 C 1931.800781 306.542969 1930.300781 303.742188 1922.691406 303.742188 C 1911.800781 303.742188 1904.300781 310.542969 1904.300781 320.542969 C 1904.300781 327.144531 1908.800781 332.84375 1915.488281 334.941406 C 1908.699219 337.042969 1906.5 339.441406 1906.5 343.441406 C 1906.5 347.941406 1909.988281 350.644531 1915.898438 350.644531 C 1917.488281 350.644531 1921.589844 350.542969 1923.589844 350.542969 C 1928.488281 350.542969 1931.5 351.042969 1933.390625 352.34375 C 1935.191406 353.542969 1936.101562 355.644531 1936.101562 358.34375 C 1936.101562 364.542969 1931.691406 367.042969 1924 367.042969 C 1920 367.042969 1916.300781 366.144531 1913.898438 364.742188 C 1912.101562 363.644531 1911 361.542969 1911 358.941406 C 1911 357.34375 1911.699219 355.542969 1912.398438 354.441406 L 1904.199219 355.144531 C 1903.5 357.144531 1903.199219 358.644531 1903.199219 360.441406 C 1903.199219 367.542969 1909.199219 373.144531 1924.789062 373.144531 C 1936.890625 373.144531 1944.601562 368.242188 1944.601562 357.441406 C 1944.601562 353.144531 1942.988281 349.644531 1939.101562 346.941406 C 1936.101562 344.84375 1932.898438 344.144531 1927.089844 344.144531 L 1919.101562 344.144531 C 1916.601562 344.144531 1915.101562 343.242188 1915.101562 341.742188 C 1915.101562 340.042969 1917.398438 338.34375 1924.101562 335.941406 C 1927.699219 335.941406 1930.898438 335.34375 1933.390625 333.742188 C 1938 330.84375 1940.800781 325.644531 1940.800781 320.042969 C 1940.800781 316.84375 1939.789062 314.042969 1937.789062 311.542969 C 1938.699219 311.941406 1939.898438 312.144531 1941.191406 312.144531 C 1944.199219 312.144531 1946.5 311.34375 1949.589844 309.144531 M 1931.691406 320.144531 C 1931.691406 326.84375 1928.699219 330.34375 1922.691406 330.34375 C 1916.390625 330.34375 1913.101562 326.84375 1913.101562 320.441406 C 1913.101562 313.542969 1916.300781 310.144531 1922.5 310.144531 C 1929.089844 310.144531 1931.691406 313.34375 1931.691406 320.144531 M 1996.988281 304.742188 L 1988.101562 304.742188 L 1978.300781 337.441406 C 1977.089844 341.542969 1975.199219 347.941406 1975.199219 347.941406 L 1975 347.941406 C 1975 347.941406 1973.5 340.242188 1972 335.542969 L 1961.800781 303.242188 L 1954.101562 305.84375 L 1964.800781 337.042969 C 1966.5 342.042969 1969.199219 351.742188 1969.800781 354.941406 L 1972.988281 354.441406 C 1970.300781 364.542969 1967.898438 367.742188 1961.5 369.742188 L 1963.789062 375.042969 C 1972.5 372.941406 1976.601562 366.34375 1979.898438 356.34375 L 1996.988281 304.742188 "/>
</g>
</svg>
